<svg width="550" height="28" viewBox="0 0 550 28" fill="none" xmlns="http://www.w3.org/2000/svg">
<mask id="path-1-outside-1_446_691" maskUnits="userSpaceOnUse" x="0.33667" y="0.200195" width="549" height="24" fill="black">
<rect fill="white" x="0.33667" y="0.200195" width="549" height="24"/>
<path fill-rule="evenodd" clip-rule="evenodd" d="M224.84 1.2002H225.204L225.465 1.45247L245.99 21.2525L247.594 22.8002H245.365H157.566H157.203L156.941 22.5479L147.304 13.2507L137.666 22.5479L137.405 22.8002H137.041H13.8951H13.5318L13.2703 22.5479L3.00809 12.6479L2.33667 12.0002L3.00809 11.3525L13.2703 1.45247L13.5318 1.2002H13.8951H137.041H137.405L137.666 1.45247L147.304 10.7497L156.941 1.45247L157.203 1.2002H157.566H224.84ZM157.929 3.0002L148.6 12.0002L157.929 21.0002H243.135L224.477 3.0002H157.929ZM136.678 21.0002L146.007 12.0002L136.678 3.0002H14.2585L4.92923 12.0002L14.2585 21.0002H136.678ZM325.16 1.2002H324.796L324.535 1.45247L304.011 21.2525L302.406 22.8002H304.635H392.434H392.798L393.059 22.5479L402.696 13.2507L412.334 22.5479L412.595 22.8002H412.959H536.105H536.468L536.73 22.5479L546.992 12.6479L547.663 12.0002L546.992 11.3525L536.73 1.45247L536.468 1.2002H536.105H412.959H412.595L412.334 1.45247L402.696 10.7497L393.059 1.45247L392.798 1.2002H392.434H325.16ZM392.071 3.0002L401.4 12.0002L392.071 21.0002H306.865L325.523 3.0002H392.071ZM413.322 21.0002L403.993 12.0002L413.322 3.0002H535.742L545.071 12.0002L535.742 21.0002H413.322Z"/>
</mask>
<path fill-rule="evenodd" clip-rule="evenodd" d="M224.84 1.2002H225.204L225.465 1.45247L245.99 21.2525L247.594 22.8002H245.365H157.566H157.203L156.941 22.5479L147.304 13.2507L137.666 22.5479L137.405 22.8002H137.041H13.8951H13.5318L13.2703 22.5479L3.00809 12.6479L2.33667 12.0002L3.00809 11.3525L13.2703 1.45247L13.5318 1.2002H13.8951H137.041H137.405L137.666 1.45247L147.304 10.7497L156.941 1.45247L157.203 1.2002H157.566H224.84ZM157.929 3.0002L148.6 12.0002L157.929 21.0002H243.135L224.477 3.0002H157.929ZM136.678 21.0002L146.007 12.0002L136.678 3.0002H14.2585L4.92923 12.0002L14.2585 21.0002H136.678ZM325.16 1.2002H324.796L324.535 1.45247L304.011 21.2525L302.406 22.8002H304.635H392.434H392.798L393.059 22.5479L402.696 13.2507L412.334 22.5479L412.595 22.8002H412.959H536.105H536.468L536.73 22.5479L546.992 12.6479L547.663 12.0002L546.992 11.3525L536.73 1.45247L536.468 1.2002H536.105H412.959H412.595L412.334 1.45247L402.696 10.7497L393.059 1.45247L392.798 1.2002H392.434H325.16ZM392.071 3.0002L401.4 12.0002L392.071 21.0002H306.865L325.523 3.0002H392.071ZM413.322 21.0002L403.993 12.0002L413.322 3.0002H535.742L545.071 12.0002L535.742 21.0002H413.322Z" fill="url(#paint0_linear_446_691)"/>
<path d="M225.204 1.2002L225.898 0.480503L225.607 0.200195H225.204V1.2002ZM225.465 1.45247L224.771 2.17216L224.771 2.17216L225.465 1.45247ZM245.99 21.2525L245.295 21.9722L245.295 21.9722L245.99 21.2525ZM247.594 22.8002V23.8002H250.071L248.288 22.0805L247.594 22.8002ZM157.203 22.8002L156.508 23.5199L156.799 23.8002H157.203V22.8002ZM156.941 22.5479L157.635 21.8282L157.635 21.8282L156.941 22.5479ZM147.304 13.2507L147.998 12.531L147.304 11.8612L146.609 12.531L147.304 13.2507ZM137.666 22.5479L136.972 21.8282L136.972 21.8282L137.666 22.5479ZM137.405 22.8002V23.8002H137.809L138.099 23.5199L137.405 22.8002ZM13.5318 22.8002L12.8375 23.5199L13.1281 23.8002H13.5318V22.8002ZM13.2703 22.5479L13.9646 21.8282L13.9646 21.8282L13.2703 22.5479ZM3.00809 12.6479L2.31379 13.3676L2.31379 13.3676L3.00809 12.6479ZM2.33667 12.0002L1.64238 11.2805L0.896358 12.0002L1.64238 12.7199L2.33667 12.0002ZM3.00809 11.3525L2.31379 10.6328L2.31379 10.6328L3.00809 11.3525ZM13.2703 1.45247L13.9646 2.17216L13.9646 2.17216L13.2703 1.45247ZM13.5318 1.2002V0.200195H13.1281L12.8375 0.480503L13.5318 1.2002ZM137.405 1.2002L138.099 0.480503L137.809 0.200195H137.405V1.2002ZM137.666 1.45247L136.972 2.17216L136.972 2.17216L137.666 1.45247ZM147.304 10.7497L146.609 11.4694L147.304 12.1391L147.998 11.4694L147.304 10.7497ZM156.941 1.45247L157.635 2.17216L157.635 2.17216L156.941 1.45247ZM157.203 1.2002V0.200195H156.799L156.508 0.480503L157.203 1.2002ZM148.6 12.0002L147.906 11.2805L147.16 12.0002L147.906 12.7199L148.6 12.0002ZM157.929 3.0002V2.0002H157.525L157.235 2.2805L157.929 3.0002ZM157.929 21.0002L157.235 21.7199L157.525 22.0002H157.929V21.0002ZM243.135 21.0002V22.0002H245.612L243.83 20.2805L243.135 21.0002ZM224.477 3.0002L225.171 2.2805L224.881 2.0002H224.477V3.0002ZM146.007 12.0002L146.702 12.7199L147.448 12.0002L146.702 11.2805L146.007 12.0002ZM136.678 21.0002V22.0002H137.082L137.372 21.7199L136.678 21.0002ZM136.678 3.0002L137.372 2.2805L137.082 2.0002H136.678V3.0002ZM14.2585 3.0002V2.0002H13.8548L13.5642 2.2805L14.2585 3.0002ZM4.92923 12.0002L4.23494 11.2805L3.48891 12.0002L4.23494 12.7199L4.92923 12.0002ZM14.2585 21.0002L13.5642 21.7199L13.8548 22.0002H14.2585V21.0002ZM324.796 1.2002V0.200195H324.393L324.102 0.480462L324.796 1.2002ZM324.535 1.45247L323.841 0.732738L323.841 0.732778L324.535 1.45247ZM304.011 21.2525L303.316 20.5328L303.316 20.5328L304.011 21.2525ZM302.406 22.8002L301.712 22.0805L299.929 23.8002H302.406V22.8002ZM392.798 22.8002V23.8002H393.201L393.492 23.5199L392.798 22.8002ZM393.059 22.5479L392.365 21.8282L392.365 21.8282L393.059 22.5479ZM402.696 13.2507L403.391 12.531L402.696 11.8612L402.002 12.531L402.696 13.2507ZM412.334 22.5479L413.028 21.8282L413.028 21.8282L412.334 22.5479ZM412.595 22.8002L411.901 23.5199L412.191 23.8002H412.595V22.8002ZM536.468 22.8002V23.8002H536.872L537.162 23.5199L536.468 22.8002ZM536.73 22.5479L537.424 23.2676L537.424 23.2676L536.73 22.5479ZM546.992 12.6479L546.298 11.9282L546.298 11.9282L546.992 12.6479ZM547.663 12.0002L548.358 12.7199L549.104 12.0002L548.358 11.2805L547.663 12.0002ZM546.992 11.3525L546.298 12.0722L546.298 12.0722L546.992 11.3525ZM536.73 1.45247L537.424 0.73278L537.424 0.732738L536.73 1.45247ZM536.468 1.2002L537.162 0.480462L536.872 0.200195H536.468V1.2002ZM412.595 1.2002V0.200195H412.191L411.901 0.480503L412.595 1.2002ZM412.334 1.45247L413.028 2.17216L413.028 2.17216L412.334 1.45247ZM402.696 10.7497L402.002 11.4694L402.696 12.1391L403.391 11.4694L402.696 10.7497ZM393.059 1.45247L392.365 2.17216L392.365 2.17216L393.059 1.45247ZM392.798 1.2002L393.492 0.480503L393.201 0.200195H392.798V1.2002ZM401.4 12.0002L402.094 12.7199L402.84 12.0002L402.094 11.2805L401.4 12.0002ZM392.071 3.0002L392.765 2.2805L392.475 2.0002H392.071V3.0002ZM392.071 21.0002V22.0002H392.475L392.765 21.7199L392.071 21.0002ZM306.865 21.0002L306.17 20.2805L304.388 22.0002H306.865V21.0002ZM325.523 3.0002V2.0002H325.119L324.829 2.2805L325.523 3.0002ZM403.993 12.0002L403.298 11.2805L402.552 12.0002L403.298 12.7199L403.993 12.0002ZM413.322 21.0002L412.628 21.7199L412.918 22.0002H413.322V21.0002ZM413.322 3.0002V2.0002H412.918L412.628 2.2805L413.322 3.0002ZM535.742 3.0002L536.436 2.2805L536.145 2.0002H535.742V3.0002ZM545.071 12.0002L545.765 12.7199L546.511 12.0002L545.765 11.2805L545.071 12.0002ZM535.742 21.0002V22.0002H536.145L536.436 21.7199L535.742 21.0002ZM225.204 0.200195H224.84V2.2002H225.204V0.200195ZM226.159 0.732779L225.898 0.480503L224.509 1.91989L224.771 2.17216L226.159 0.732779ZM246.684 20.5328L226.159 0.732778L224.771 2.17216L245.295 21.9722L246.684 20.5328ZM248.288 22.0805L246.684 20.5328L245.295 21.9722L246.9 23.5199L248.288 22.0805ZM245.365 23.8002H247.594V21.8002H245.365V23.8002ZM157.566 23.8002H245.365V21.8002H157.566V23.8002ZM157.203 23.8002H157.566V21.8002H157.203V23.8002ZM156.247 23.2676L156.508 23.5199L157.897 22.0805L157.635 21.8282L156.247 23.2676ZM146.609 13.9704L156.247 23.2676L157.635 21.8282L147.998 12.531L146.609 13.9704ZM138.361 23.2676L147.998 13.9704L146.609 12.531L136.972 21.8282L138.361 23.2676ZM138.099 23.5199L138.361 23.2676L136.972 21.8282L136.711 22.0805L138.099 23.5199ZM137.041 23.8002H137.405V21.8002H137.041V23.8002ZM13.8951 23.8002H137.041V21.8002H13.8951V23.8002ZM13.5318 23.8002H13.8951V21.8002H13.5318V23.8002ZM12.576 23.2676L12.8375 23.5199L14.2261 22.0805L13.9646 21.8282L12.576 23.2676ZM2.31379 13.3676L12.576 23.2676L13.9646 21.8282L3.70238 11.9282L2.31379 13.3676ZM1.64238 12.7199L2.31379 13.3676L3.70238 11.9282L3.03096 11.2805L1.64238 12.7199ZM2.31379 10.6328L1.64238 11.2805L3.03096 12.7199L3.70238 12.0722L2.31379 10.6328ZM12.576 0.732778L2.31379 10.6328L3.70238 12.0722L13.9646 2.17216L12.576 0.732778ZM12.8375 0.480503L12.576 0.732779L13.9646 2.17216L14.2261 1.91989L12.8375 0.480503ZM13.8951 0.200195H13.5318V2.2002H13.8951V0.200195ZM137.041 0.200195H13.8951V2.2002H137.041V0.200195ZM137.405 0.200195H137.041V2.2002H137.405V0.200195ZM138.361 0.732779L138.099 0.480503L136.711 1.91989L136.972 2.17216L138.361 0.732779ZM147.998 10.03L138.361 0.732778L136.972 2.17216L146.609 11.4694L147.998 10.03ZM156.247 0.732778L146.609 10.03L147.998 11.4694L157.635 2.17216L156.247 0.732778ZM156.508 0.480503L156.247 0.732779L157.635 2.17216L157.897 1.91989L156.508 0.480503ZM157.566 0.200195H157.203V2.2002H157.566V0.200195ZM224.84 0.200195H157.566V2.2002H224.84V0.200195ZM149.294 12.7199L158.624 3.71989L157.235 2.2805L147.906 11.2805L149.294 12.7199ZM158.624 20.2805L149.294 11.2805L147.906 12.7199L157.235 21.7199L158.624 20.2805ZM243.135 20.0002H157.929V22.0002H243.135V20.0002ZM223.783 3.71989L242.441 21.7199L243.83 20.2805L225.171 2.2805L223.783 3.71989ZM157.929 4.0002H224.477V2.0002H157.929V4.0002ZM145.313 11.2805L135.984 20.2805L137.372 21.7199L146.702 12.7199L145.313 11.2805ZM135.984 3.71989L145.313 12.7199L146.702 11.2805L137.372 2.2805L135.984 3.71989ZM14.2585 4.0002H136.678V2.0002H14.2585V4.0002ZM5.62352 12.7199L14.9528 3.71989L13.5642 2.2805L4.23494 11.2805L5.62352 12.7199ZM14.9528 20.2805L5.62352 11.2805L4.23494 12.7199L13.5642 21.7199L14.9528 20.2805ZM136.678 20.0002H14.2585V22.0002H136.678V20.0002ZM324.796 2.2002H325.16V0.200195H324.796V2.2002ZM325.229 2.1722L325.491 1.91993L324.102 0.480462L323.841 0.732738L325.229 2.1722ZM304.705 21.9722L325.229 2.17216L323.841 0.732778L303.316 20.5328L304.705 21.9722ZM303.1 23.5199L304.705 21.9722L303.316 20.5328L301.712 22.0805L303.1 23.5199ZM304.635 21.8002H302.406V23.8002H304.635V21.8002ZM392.434 21.8002H304.635V23.8002H392.434V21.8002ZM392.798 21.8002H392.434V23.8002H392.798V21.8002ZM392.365 21.8282L392.103 22.0805L393.492 23.5199L393.753 23.2676L392.365 21.8282ZM402.002 12.531L392.365 21.8282L393.753 23.2676L403.391 13.9704L402.002 12.531ZM413.028 21.8282L403.391 12.531L402.002 13.9704L411.639 23.2676L413.028 21.8282ZM413.289 22.0805L413.028 21.8282L411.639 23.2676L411.901 23.5199L413.289 22.0805ZM412.959 21.8002H412.595V23.8002H412.959V21.8002ZM536.105 21.8002H412.959V23.8002H536.105V21.8002ZM536.468 21.8002H536.105V23.8002H536.468V21.8002ZM536.036 21.8282L535.774 22.0805L537.162 23.5199L537.424 23.2676L536.036 21.8282ZM546.298 11.9282L536.035 21.8282L537.424 23.2676L547.686 13.3676L546.298 11.9282ZM546.969 11.2805L546.298 11.9282L547.686 13.3676L548.358 12.7199L546.969 11.2805ZM546.298 12.0722L546.969 12.7199L548.358 11.2805L547.686 10.6328L546.298 12.0722ZM536.035 2.17216L546.298 12.0722L547.686 10.6328L537.424 0.73278L536.035 2.17216ZM535.774 1.91993L536.036 2.1722L537.424 0.732738L537.162 0.480462L535.774 1.91993ZM536.105 2.2002H536.468V0.200195H536.105V2.2002ZM412.959 2.2002H536.105V0.200195H412.959V2.2002ZM412.595 2.2002H412.959V0.200195H412.595V2.2002ZM413.028 2.17216L413.289 1.91989L411.901 0.480503L411.639 0.732779L413.028 2.17216ZM403.391 11.4694L413.028 2.17216L411.639 0.732778L402.002 10.03L403.391 11.4694ZM392.365 2.17216L402.002 11.4694L403.391 10.03L393.753 0.732778L392.365 2.17216ZM392.103 1.91989L392.365 2.17216L393.753 0.732779L393.492 0.480503L392.103 1.91989ZM392.434 2.2002H392.798V0.200195H392.434V2.2002ZM325.16 2.2002H392.434V0.200195H325.16V2.2002ZM402.094 11.2805L392.765 2.2805L391.377 3.71989L400.706 12.7199L402.094 11.2805ZM392.765 21.7199L402.094 12.7199L400.706 11.2805L391.377 20.2805L392.765 21.7199ZM306.865 22.0002H392.071V20.0002H306.865V22.0002ZM324.829 2.2805L306.17 20.2805L307.559 21.7199L326.217 3.71989L324.829 2.2805ZM392.071 2.0002H325.523V4.0002H392.071V2.0002ZM403.298 12.7199L412.628 21.7199L414.016 20.2805L404.687 11.2805L403.298 12.7199ZM412.628 2.2805L403.298 11.2805L404.687 12.7199L414.016 3.71989L412.628 2.2805ZM535.742 2.0002H413.322V4.0002H535.742V2.0002ZM545.765 11.2805L536.436 2.2805L535.047 3.71989L544.376 12.7199L545.765 11.2805ZM536.436 21.7199L545.765 12.7199L544.376 11.2805L535.047 20.2805L536.436 21.7199ZM413.322 22.0002H535.742V20.0002H413.322V22.0002Z" fill="black" fill-opacity="0.25" mask="url(#path-1-outside-1_446_691)"/>
<g filter="url(#filter0_d_446_691)">
<mask id="path-3-outside-2_446_691" maskUnits="userSpaceOnUse" x="13.8264" y="5.6001" width="524" height="19" fill="black">
<rect fill="white" x="13.8264" y="5.6001" width="524" height="19"/>
<path fill-rule="evenodd" clip-rule="evenodd" d="M15.8264 11.9559L20.4536 7.6001L25.0809 11.9559L20.4536 16.3117L15.8264 11.9559ZM531.676 7.6001L536.303 11.9559L531.676 16.3117L527.048 11.9559L531.676 7.6001ZM288.335 11.1001H287.978L287.718 11.3448L277.461 21.0001H274.668L264.411 11.3448L264.151 11.1001H263.794H30.0847V12.9001H176.342L175.537 13.7554L184.885 22.5554L185.145 22.8001H185.502H248.604H303.526H366.627H366.984L367.244 22.5554L376.592 13.7554L375.787 12.9001H522.045V11.1001H288.335ZM303.526 21.0001H280.087L288.692 12.9001H374.875L366.27 21.0001H303.526ZM263.438 12.9001L272.042 21.0001H248.604H185.859L177.254 12.9001H263.438Z"/>
</mask>
<path fill-rule="evenodd" clip-rule="evenodd" d="M15.8264 11.9559L20.4536 7.6001L25.0809 11.9559L20.4536 16.3117L15.8264 11.9559ZM531.676 7.6001L536.303 11.9559L531.676 16.3117L527.048 11.9559L531.676 7.6001ZM288.335 11.1001H287.978L287.718 11.3448L277.461 21.0001H274.668L264.411 11.3448L264.151 11.1001H263.794H30.0847V12.9001H176.342L175.537 13.7554L184.885 22.5554L185.145 22.8001H185.502H248.604H303.526H366.627H366.984L367.244 22.5554L376.592 13.7554L375.787 12.9001H522.045V11.1001H288.335ZM303.526 21.0001H280.087L288.692 12.9001H374.875L366.27 21.0001H303.526ZM263.438 12.9001L272.042 21.0001H248.604H185.859L177.254 12.9001H263.438Z" fill="url(#paint1_linear_446_691)" shape-rendering="crispEdges"/>
<path d="M20.4536 7.6001L21.1391 6.87196L20.4536 6.22674L19.7682 6.87196L20.4536 7.6001ZM15.8264 11.9559L15.141 11.2277L14.3675 11.9559L15.141 12.684L15.8264 11.9559ZM25.0809 11.9559L25.7663 12.684L26.5398 11.9559L25.7663 11.2277L25.0809 11.9559ZM20.4536 16.3117L19.7682 17.0398L20.4536 17.685L21.1391 17.0398L20.4536 16.3117ZM536.303 11.9559L536.988 12.684L537.762 11.9559L536.988 11.2277L536.303 11.9559ZM531.676 7.6001L532.361 6.87195L531.676 6.22674L530.99 6.87196L531.676 7.6001ZM531.676 16.3117L530.99 17.0398L531.676 17.685L532.361 17.0398L531.676 16.3117ZM527.048 11.9559L526.363 11.2277L525.589 11.9559L526.363 12.684L527.048 11.9559ZM287.978 11.1001V10.1001H287.581L287.292 10.372L287.978 11.1001ZM287.718 11.3448L288.403 12.0729L288.403 12.0729L287.718 11.3448ZM277.461 21.0001V22.0001H277.857L278.146 21.7282L277.461 21.0001ZM274.668 21.0001L273.983 21.7282L274.272 22.0001H274.668V21.0001ZM264.411 11.3448L263.726 12.0729L263.726 12.0729L264.411 11.3448ZM264.151 11.1001L264.837 10.372L264.548 10.1001H264.151V11.1001ZM30.0847 11.1001V10.1001H29.0847V11.1001H30.0847ZM30.0847 12.9001H29.0847V13.9001H30.0847V12.9001ZM176.342 12.9001L177.07 13.5855L178.657 11.9001H176.342V12.9001ZM175.537 13.7554L174.809 13.07L174.123 13.7981L174.851 14.4836L175.537 13.7554ZM184.885 22.5554L185.571 21.8273L185.571 21.8273L184.885 22.5554ZM185.145 22.8001L184.46 23.5282L184.748 23.8001H185.145V22.8001ZM366.984 22.8001V23.8001H367.381L367.67 23.5282L366.984 22.8001ZM367.244 22.5554L366.559 21.8273L366.559 21.8273L367.244 22.5554ZM376.592 13.7554L377.278 14.4836L378.006 13.7981L377.321 13.07L376.592 13.7554ZM375.787 12.9001V11.9001H373.473L375.059 13.5855L375.787 12.9001ZM522.045 12.9001V13.9001H523.045V12.9001H522.045ZM522.045 11.1001H523.045V10.1001H522.045V11.1001ZM280.087 21.0001L279.402 20.272L277.566 22.0001H280.087V21.0001ZM288.692 12.9001V11.9001H288.295L288.006 12.172L288.692 12.9001ZM374.875 12.9001L375.56 13.6282L377.396 11.9001H374.875V12.9001ZM366.27 21.0001V22.0001H366.667L366.956 21.7282L366.27 21.0001ZM272.042 21.0001V22.0001H274.564L272.728 20.272L272.042 21.0001ZM263.438 12.9001L264.123 12.172L263.834 11.9001H263.438V12.9001ZM185.859 21.0001L185.174 21.7282L185.462 22.0001H185.859V21.0001ZM177.254 12.9001V11.9001H174.733L176.569 13.6282L177.254 12.9001ZM19.7682 6.87196L15.141 11.2277L16.5118 12.684L21.1391 8.32824L19.7682 6.87196ZM25.7663 11.2277L21.1391 6.87196L19.7682 8.32824L24.3954 12.684L25.7663 11.2277ZM21.1391 17.0398L25.7663 12.684L24.3954 11.2277L19.7682 15.5835L21.1391 17.0398ZM15.141 12.684L19.7682 17.0398L21.1391 15.5835L16.5118 11.2277L15.141 12.684ZM536.988 11.2277L532.361 6.87195L530.99 8.32824L535.617 12.684L536.988 11.2277ZM532.361 17.0398L536.988 12.684L535.617 11.2277L530.99 15.5835L532.361 17.0398ZM526.363 12.684L530.99 17.0398L532.361 15.5835L527.734 11.2277L526.363 12.684ZM530.99 6.87196L526.363 11.2277L527.734 12.684L532.361 8.32824L530.99 6.87196ZM287.978 12.1001H288.335V10.1001H287.978V12.1001ZM288.403 12.0729L288.663 11.8282L287.292 10.372L287.032 10.6166L288.403 12.0729ZM278.146 21.7282L288.403 12.0729L287.032 10.6166L276.775 20.272L278.146 21.7282ZM274.668 22.0001H277.461V20.0001H274.668V22.0001ZM263.726 12.0729L273.983 21.7282L275.354 20.272L265.097 10.6166L263.726 12.0729ZM263.466 11.8282L263.726 12.0729L265.097 10.6166L264.837 10.372L263.466 11.8282ZM263.794 12.1001H264.151V10.1001H263.794V12.1001ZM30.0847 12.1001H263.794V10.1001H30.0847V12.1001ZM31.0847 12.9001V11.1001H29.0847V12.9001H31.0847ZM176.342 11.9001H30.0847V13.9001H176.342V11.9001ZM176.265 14.4408L177.07 13.5855L175.614 12.2147L174.809 13.07L176.265 14.4408ZM185.571 21.8273L176.222 13.0273L174.851 14.4836L184.2 23.2836L185.571 21.8273ZM185.831 22.072L185.571 21.8273L184.2 23.2836L184.46 23.5282L185.831 22.072ZM185.502 21.8001H185.145V23.8001H185.502V21.8001ZM248.604 21.8001H185.502V23.8001H248.604V21.8001ZM303.526 21.8001H248.604V23.8001H303.526V21.8001ZM366.627 21.8001H303.526V23.8001H366.627V21.8001ZM366.984 21.8001H366.627V23.8001H366.984V21.8001ZM366.559 21.8273L366.299 22.072L367.67 23.5282L367.929 23.2836L366.559 21.8273ZM375.907 13.0273L366.559 21.8273L367.929 23.2836L377.278 14.4836L375.907 13.0273ZM375.059 13.5855L375.864 14.4408L377.321 13.07L376.515 12.2147L375.059 13.5855ZM522.045 11.9001H375.787V13.9001H522.045V11.9001ZM521.045 11.1001V12.9001H523.045V11.1001H521.045ZM288.335 12.1001H522.045V10.1001H288.335V12.1001ZM280.087 22.0001H303.526V20.0001H280.087V22.0001ZM288.006 12.172L279.402 20.272L280.772 21.7282L289.377 13.6282L288.006 12.172ZM374.875 11.9001H288.692V13.9001H374.875V11.9001ZM366.956 21.7282L375.56 13.6282L374.19 12.172L365.585 20.272L366.956 21.7282ZM303.526 22.0001H366.27V20.0001H303.526V22.0001ZM272.728 20.272L264.123 12.172L262.752 13.6282L271.357 21.7282L272.728 20.272ZM248.604 22.0001H272.042V20.0001H248.604V22.0001ZM185.859 22.0001H248.604V20.0001H185.859V22.0001ZM176.569 13.6282L185.174 21.7282L186.544 20.272L177.94 12.172L176.569 13.6282ZM263.438 11.9001H177.254V13.9001H263.438V11.9001Z" fill="black" fill-opacity="0.38" mask="url(#path-3-outside-2_446_691)"/>
</g>
<defs>
<filter id="filter0_d_446_691" x="10.9674" y="2.82656" width="530.194" height="24.3737" filterUnits="userSpaceOnUse" color-interpolation-filters="sRGB">
<feFlood flood-opacity="0" result="BackgroundImageFix"/>
<feColorMatrix in="SourceAlpha" type="matrix" values="0 0 0 0 0 0 0 0 0 0 0 0 0 0 0 0 0 0 127 0" result="hardAlpha"/>
<feOffset/>
<feGaussianBlur stdDeviation="1.7"/>
<feComposite in2="hardAlpha" operator="out"/>
<feColorMatrix type="matrix" values="0 0 0 0 0 0 0 0 0 0 0 0 0 0 0 0 0 0 0.57 0"/>
<feBlend mode="normal" in2="BackgroundImageFix" result="effect1_dropShadow_446_691"/>
<feBlend mode="normal" in="SourceGraphic" in2="effect1_dropShadow_446_691" result="shape"/>
</filter>
<linearGradient id="paint0_linear_446_691" x1="2.33667" y1="12.0002" x2="547.663" y2="12.0002" gradientUnits="userSpaceOnUse">
<stop stop-color="#383530"/>
<stop offset="0.495039" stop-color="#594F41"/>
<stop offset="1" stop-color="#3B3733"/>
</linearGradient>
<linearGradient id="paint1_linear_446_691" x1="459.737" y1="7.32434" x2="77.7674" y2="7.32435" gradientUnits="userSpaceOnUse">
<stop stop-color="#6C5E4C"/>
<stop offset="0.477448" stop-color="#B9A182"/>
<stop offset="1" stop-color="#6C5E4C"/>
</linearGradient>
</defs>
</svg>
